<!-- Generated by IcoMoon.io -->
<svg version="1.1" xmlns="http://www.w3.org/2000/svg" width="448" height="448" viewBox="0 0 448 448">
<title></title>
<g id="icomoon-ignore">
</g>
<path d="M64 360v48c0 4.5-3.5 8-8 8h-48c-4.5 0-8-3.5-8-8v-48c0-4.5 3.5-8 8-8h48c4.5 0 8 3.5 8 8zM160 328v80c0 4.5-3.5 8-8 8h-48c-4.5 0-8-3.5-8-8v-80c0-4.5 3.5-8 8-8h48c4.5 0 8 3.5 8 8zM256 264v144c0 4.5-3.5 8-8 8h-48c-4.5 0-8-3.5-8-8v-144c0-4.5 3.5-8 8-8h48c4.5 0 8 3.5 8 8zM352 168v240c0 4.5-3.5 8-8 8h-48c-4.5 0-8-3.5-8-8v-240c0-4.5 3.5-8 8-8h48c4.5 0 8 3.5 8 8zM448 40v368c0 4.5-3.5 8-8 8h-48c-4.5 0-8-3.5-8-8v-368c0-4.5 3.5-8 8-8h48c4.5 0 8 3.5 8 8z"></path>
</svg>
